<?xml version="1.0" encoding="utf-8"?>
<!-- Generator: Adobe Illustrator 19.2.1, SVG Export Plug-In . SVG Version: 6.00 Build 0)  -->
<svg version="1.1" xmlns="http://www.w3.org/2000/svg" xmlns:xlink="http://www.w3.org/1999/xlink" x="0px" y="0px"
	 viewBox="0 0 226 226" style="enable-background:new 0 0 226 226;" xml:space="preserve">
<style type="text/css">
	.st0{fill:#F0F1F2;}
	.st1{fill:#E8E9EB;}
	.st2{fill:#CCCDCE;}
	.st3{fill:#B6BABF;}
	.st4{display:none;}
	.st5{display:inline;fill:#F0F1F2;}
	.st6{fill:#007BFF;stroke:#FFFFFF;stroke-miterlimit:10;}
</style>
<g id="Capa_1">
	<path class="st0" d="M39,113c0,40.9,33.1,74,74,74s74-33.1,74-74s-33.1-74-74-74S39,72.1,39,113z"/>
	<path class="st1" d="M120.2,81.7h53.3c4,0,7.2,3.2,7.2,7.2v53.3c0,4-3.2,7.2-7.2,7.2h-53.3c-4,0-7.2-3.2-7.2-7.2V88.8
		C113,84.9,116.2,81.7,120.2,81.7z"/>
	<path class="st2" d="M143,141c0-1.7,1.3-3,3-3h16c1.7,0,3,1.3,3,3v12c0,1.7-1.3,3-3,3h-16c-1.7,0-3-1.3-3-3V141z"/>
	<path class="st3" d="M174.7,92.6c0-1.7-1.3-3-3-3h-24c-1.7,0-3,1.3-3,3s1.3,3,3,3h24C173.3,95.6,174.7,94.3,174.7,92.6z"/>
	<path class="st3" d="M48.7,76.4H69c1.7,0,3-1.3,3-3s-1.3-3-3-3H52.5C51.1,72.3,49.9,74.3,48.7,76.4z"/>
</g>
<g id="Capa_4" class="st4">
	<path class="st5" d="M39,113c0,40.9,33.1,74,74,74s74-33.1,74-74s-33.1-74-74-74S39,72.1,39,113z"/>
</g>
<g id="Capa_3">
	<g id="Capa_2">
		<g>
			<path class="st6" d="M137.5,130.8l-14.3-7.2l-38.3,23c-0.9,0.5-2,0.5-2.9,0l-37.6-22.6l-13.5,6.8c-2,1-2.1,3.7-0.2,4.9l52,31.2
				c0.9,0.5,2,0.5,2.9,0l52-31.2C139.5,134.6,139.4,131.8,137.5,130.8z"/>
			<path class="st6" d="M84.9,146.6l38.3-23l13.8-8.3c1.9-1.1,1.8-3.9-0.2-4.9l-13.6-6.8l-38.3,23c-0.9,0.5-2,0.5-2.9,0l-38.3-23
				l-13.6,6.8c-2,1-2.1,3.7-0.2,4.9l14.5,8.7L82,146.6C82.9,147.2,84,147.2,84.9,146.6z"/>
			<path class="st6" d="M82,126.7c0.9,0.5,2,0.5,2.9,0l38.3-23l13.8-8.3c1.9-1.1,1.8-3.9-0.2-4.9l-52-26.1c-0.8-0.4-1.7-0.4-2.5,0
				l-52,26.1c-2,1-2.1,3.7-0.2,4.9l13.8,8.3L82,126.7z"/>
		</g>
	</g>
</g>
</svg>
