<?xml version="1.0" encoding="UTF-8"?>
<svg id="Capa_1" xmlns="http://www.w3.org/2000/svg" viewBox="0 0 177.61 148">
  <defs>
    <style>
      .cls-1 {
        fill: #e8e9eb;
      }

      .cls-2 {
        fill: none;
      }

      .cls-2, .cls-3, .cls-4 {
        stroke: #03c7ee;
        stroke-miterlimit: 10;
      }

      .cls-2, .cls-4 {
        stroke-width: 4px;
      }

      .cls-3 {
        stroke-width: 3px;
      }

      .cls-3, .cls-4 {
        fill: #fff;
      }

      .cls-5 {
        fill: #f0f1f2;
      }

      .cls-6 {
        fill: #cccdce;
      }

      .cls-7 {
        fill: #b6babf;
      }
    </style>
  </defs>
  <g id="Capa_1-2" data-name="Capa_1">
    <path class="cls-5" d="M23.41,74c0,40.9,33.1,74,74,74s74-33.1,74-74S138.31,0,97.41,0,23.41,33.1,23.41,74Z"/>
    <path class="cls-1" d="M117.11,53.7h53.3c4,0,7.2,3.2,7.2,7.2v53.3c0,4-3.2,7.2-7.2,7.2h-53.3c-4,0-7.2-3.2-7.2-7.2v-53.4c0-3.9,3.2-7.1,7.2-7.1Z"/>
    <path class="cls-6" d="M139.91,113c0-1.7,1.3-3,3-3h16c1.7,0,3,1.3,3,3v12c0,1.7-1.3,3-3,3h-16c-1.7,0-3-1.3-3-3v-12Z"/>
    <path class="cls-7" d="M171.61,64.6c0-1.7-1.3-3-3-3h-24c-1.7,0-3,1.3-3,3s1.3,3,3,3h24c1.6,0,3-1.3,3-3Z"/>
    <path class="cls-7" d="M45.61,48.4h20.3c1.7,0,3-1.3,3-3s-1.3-3-3-3h-16.5c-1.4,1.9-2.6,3.9-3.8,6Z"/>
  </g>
  <rect class="cls-4" x="27.41" y="28.64" width="56.75" height="43.67" rx="9.61" ry="9.61"/>
  <line class="cls-2" x1="54.79" y1="105.54" x2="54.79" y2="72.31"/>
  <rect class="cls-3" x="80.16" y="105.54" width="29.44" height="25.02" rx="7" ry="7"/>
  <rect class="cls-3" x="39.48" y="105.54" width="29.44" height="25.02" rx="7" ry="7"/>
  <rect class="cls-3" x="1.5" y="105.54" width="29.44" height="25.02" rx="7" ry="7"/>
  <path class="cls-2" d="M94.88,105.54v-11.31c0-2.13-1.72-3.85-3.85-3.85H20.07c-2.13,0-3.85,1.72-3.85,3.85v11.31"/>
</svg>