<?xml version="1.0" encoding="utf-8"?>
<!-- Generator: Adobe Illustrator 19.2.1, SVG Export Plug-In . SVG Version: 6.00 Build 0)  -->
<svg version="1.1" xmlns="http://www.w3.org/2000/svg" xmlns:xlink="http://www.w3.org/1999/xlink" x="0px" y="0px"
	 viewBox="0 0 226 226" style="enable-background:new 0 0 226 226;" xml:space="preserve">
<style type="text/css">
	.st0{fill:#F0F1F2;}
	.st1{fill:#B6BABF;}
	.st2{fill:#E8E9EB;}
	.st3{fill:#007BFF;}
</style>
<g id="Capa_1">
	<path class="st0" d="M39,113c0,40.9,33.1,74,74,74s74-33.1,74-74s-33.1-74-74-74S39,72.1,39,113z"/>
	<path class="st1" d="M169,73.4c0-1.7-1.3-3-3-3h-24c-1.7,0-3,1.3-3,3s1.3,3,3,3h24C167.7,76.4,169,75.1,169,73.4z"/>
	<path class="st2" d="M139,91h45v45h-45V91z"/>
	<path class="st0" d="M150,145c0-1.7,1.3-3,3-3h16c1.7,0,3,1.3,3,3v12c0,1.7-1.3,3-3,3h-16c-1.7,0-3-1.3-3-3V145z"/>
	<path class="st1" d="M48.7,76.4H69c1.7,0,3-1.3,3-3s-1.3-3-3-3H52.5C51.1,72.3,49.9,74.3,48.7,76.4z"/>
</g>
<g id="Capa_2">
	<path class="st3" d="M136.5,62l-36.2-21.9c-24.6,4.2-45,20.6-54.9,42.7l6.9,3.9l0.4,16.8c0,0-2.2-0.1-2.5,0.9
		c-0.8,3.1-0.2,10-0.2,10.2c0,0.3,0.7,3.6,2.4,6.4c0.6,1.1,4.7,2,4.7,2.6c0,3.7,3.7,12.5,3.7,12.5s0.6,14.2-4.4,14.4
		c-1.2,0-3.3,0.9-5.9,2.2C63.7,173.3,86.7,187,113,187c17,0,32.7-5.8,45.2-15.4c-2.1-1.3-5.9-3.4-11.8-5c-9.5-2.6-17.2-9.5-17.2-9.5
		s-10.3-6.2-17.1-8.2c-6.8-2-8.1-5.6-8.1-5.6l-0.2-7.7l2.9-6.8l1.2-7.7l1.2,1.1l1.8,0l1.2-1.3l1.9-3.8l0.5-11.9l-0.8-2.9l-3.6-3.7
		l-0.5-13l10.1-8l2.3,0.6l0.2,58c0,0,2,3.9,3.9,4c1.9,0.1,3.4-4.2,3.4-4.2l-1.3-62.8l-1.8-1.9l10.1-7.4V62z"/>
</g>
</svg>
