<?xml version="1.0" encoding="UTF-8"?>
<svg id="Capa_1" xmlns="http://www.w3.org/2000/svg" viewBox="0 0 163.51 148">
  <defs>
    <style>
      .cls-1 {
        fill: #e8e9eb;
      }

      .cls-2 {
        fill: #f0f1f2;
      }

      .cls-3 {
        fill: #cccdce;
      }

      .cls-4 {
        fill: #b6babf;
      }

      .cls-5 {
        fill: #03c7ee;
        stroke: #fff;
        stroke-miterlimit: 10;
      }
    </style>
  </defs>
  <g id="Capa_1-2" data-name="Capa_1">
    <path class="cls-2" d="M15.51,74c0,40.9,33.1,74,74,74s74-33.1,74-74S130.41,0,89.51,0,15.51,33.1,15.51,74Z"/>
    <path class="cls-1" d="M96.71,42.7h53.3c4,0,7.2,3.2,7.2,7.2v53.3c0,4-3.2,7.2-7.2,7.2h-53.3c-4,0-7.2-3.2-7.2-7.2v-53.4c0-3.9,3.2-7.1,7.2-7.1Z"/>
    <path class="cls-3" d="M119.51,102c0-1.7,1.3-3,3-3h16c1.7,0,3,1.3,3,3v12c0,1.7-1.3,3-3,3h-16c-1.7,0-3-1.3-3-3v-12Z"/>
    <path class="cls-4" d="M151.21,53.6c0-1.7-1.3-3-3-3h-24c-1.7,0-3,1.3-3,3s1.3,3,3,3h24c1.6,0,3-1.3,3-3Z"/>
    <path class="cls-4" d="M25.21,37.4h20.3c1.7,0,3-1.3,3-3s-1.3-3-3-3h-16.5c-1.4,1.9-2.6,3.9-3.8,6Z"/>
  </g>
  <path class="cls-5" d="M88.32,70.47c-2.58,25.06-33.93,61.24-45.14,61.24-12.01,0-40.83-36.2-42.58-61.24C-1.14,45.64,20.24,25.39,44.46,25.39s46.41,20.32,43.86,45.07Z"/>
  <ellipse class="cls-3" cx="44.51" cy="72.68" rx="20.26" ry="20.82"/>
</svg>