<?xml version="1.0" encoding="utf-8"?>
<!-- Generator: Adobe Illustrator 19.2.1, SVG Export Plug-In . SVG Version: 6.00 Build 0)  -->
<svg version="1.1" id="Capa_1" xmlns="http://www.w3.org/2000/svg" xmlns:xlink="http://www.w3.org/1999/xlink" x="0px" y="0px"
	 viewBox="0 0 226 226" style="enable-background:new 0 0 226 226;" xml:space="preserve">
<style type="text/css">
	.st0{fill:#F0F1F2;}
	.st1{fill:#E8E9EB;}
	.st2{fill:#CCCDCE;}
	.st3{fill:#B6BABF;}
	.st4{fill:#007BFF;}
</style>
<g id="Capa_1_2_">
	<g id="Capa_4">
	</g>
	<g id="Capa_1_1_">
		<path class="st0" d="M33.5,102c0,40.9,33.1,74,74,74s74-33.1,74-74s-33.1-74-74-74S33.5,61.1,33.5,102z"/>
		<path class="st1" d="M127.2,81.7h53.3c4,0,7.2,3.2,7.2,7.2v53.3c0,4-3.2,7.2-7.2,7.2h-53.3c-4,0-7.2-3.2-7.2-7.2V88.8
			C120,84.9,123.2,81.7,127.2,81.7z"/>
		<path class="st2" d="M150,141c0-1.7,1.3-3,3-3h16c1.7,0,3,1.3,3,3v12c0,1.7-1.3,3-3,3h-16c-1.7,0-3-1.3-3-3V141z"/>
		<path class="st3" d="M181.7,92.6c0-1.7-1.3-3-3-3h-24c-1.7,0-3,1.3-3,3s1.3,3,3,3h24C180.3,95.6,181.7,94.3,181.7,92.6z"/>
		<path class="st3" d="M55.7,76.4H76c1.7,0,3-1.3,3-3s-1.3-3-3-3H59.5C58.1,72.3,56.9,74.3,55.7,76.4z"/>
	</g>
	<g id="Capa_6">
	</g>
	<g id="Capa_3">
		<g id="Capa_2">
			<g id="Capa_5">
				<path class="st0" d="M73.6,108.4L93,134.9l18.5-26.9c0,0-7-3.6-18.1-3.5C87.8,104.5,81.3,105.2,73.6,108.4z"/>
				<path class="st4" d="M128.1,65.1"/>
			</g>
		</g>
	</g>
	<path class="st4" d="M115.3,71.6l5.1-4.2c1.4-1.1,1.6-3.2,0.4-4.6l0,0c-1.1-1.4-3.2-1.6-4.6-0.4l-6,4.9c-8.1-6.2-18.1-10.1-29-10.5
		v-5.9H88c1.3,0,2.3-1,2.3-2.3v-2.2c0-1.3-1-2.3-2.3-2.3H70.3c-1.3,0-2.3,1-2.3,2.3v2.2c0,1.3,1,2.3,2.3,2.3H76v6
		C49.2,58.5,28,80.8,28,108c0,28.3,22.9,51.2,51.2,51.2s51.2-22.9,51.2-51.2C130.4,93.7,124.6,80.9,115.3,71.6z"/>
	<path class="st0" d="M78.1,120.5L78.1,120.5c-2.5,0-4.5-2-4.5-4.5V88.7c0-2.5,2-4.5,4.5-4.5l0,0c2.5,0,4.5,2,4.5,4.5V116
		C82.6,118.5,80.6,120.5,78.1,120.5z"/>
</g>
<g id="Capa_2_1_">
	<path class="st0" d="M28,65.1L14.8,91.2l9.3-1.6c0,0-0.9,30.4,27.4,47.8c12.6,7.8,31.1,12.9,58,11.7c0,0-31.9,0.6-55-16.9
		c-11.9-9-21.5-22.9-23.1-44.1l8.2-1.2L28,65.1z"/>
</g>
</svg>
