<?xml version="1.0" encoding="UTF-8"?>
<svg id="Capa_1" xmlns="http://www.w3.org/2000/svg" viewBox="0 0 154.2 148">
  <defs>
    <style>
      .cls-1 {
        fill: #e8e9eb;
      }

      .cls-2 {
        fill: #f0f1f2;
      }

      .cls-3 {
        fill: #fff;
      }

      .cls-4 {
        fill: #007bff;
        stroke: #fff;
        stroke-miterlimit: 10;
      }

      .cls-5 {
        fill: #cccdce;
      }

      .cls-6 {
        fill: #b6babf;
      }
    </style>
  </defs>
  <g id="Capa_1-2" data-name="Capa_1">
    <path class="cls-2" d="M0,74c0,40.9,33.1,74,74,74s74-33.1,74-74S114.9,0,74,0,0,33.1,0,74Z"/>
    <path class="cls-1" d="M93.7,53.7h53.3c4,0,7.2,3.2,7.2,7.2v53.3c0,4-3.2,7.2-7.2,7.2h-53.3c-4,0-7.2-3.2-7.2-7.2v-53.4c0-3.9,3.2-7.1,7.2-7.1Z"/>
    <path class="cls-5" d="M116.5,113c0-1.7,1.3-3,3-3h16c1.7,0,3,1.3,3,3v12c0,1.7-1.3,3-3,3h-16c-1.7,0-3-1.3-3-3v-12Z"/>
    <path class="cls-6" d="M148.2,64.6c0-1.7-1.3-3-3-3h-24c-1.7,0-3,1.3-3,3s1.3,3,3,3h24c1.6,0,3-1.3,3-3Z"/>
    <path class="cls-6" d="M22.2,48.4h20.3c1.7,0,3-1.3,3-3s-1.3-3-3-3h-16.5c-1.4,1.9-2.6,3.9-3.8,6Z"/>
  </g>
  <g id="Capa_3">
    <g id="Capa_2">
      <path class="cls-4" d="M102.5,126.5c3.7,0,6.5-3.3,6-7-3.4-24-24-42.5-49-42.5S13.9,95.5,10.5,119.5c-.5,3.7,2.3,7,6,7h86Z"/>
      <circle class="cls-4" cx="60.7" cy="44.7" r="27"/>
      <g id="Capa_5">
        <path class="cls-2" d="M40.1,80.4l19.4,26.5,18.5-26.9s-7-3.6-18.1-3.5c-5.6,0-12.1.7-19.8,3.9Z"/>
        <rect class="cls-3" x="92.5" y="21.6" width="1.4" height="15.3"/>
      </g>
    </g>
  </g>
</svg>