<?xml version="1.0" encoding="utf-8"?>
<!-- Generator: Adobe Illustrator 19.2.1, SVG Export Plug-In . SVG Version: 6.00 Build 0)  -->
<svg version="1.1" xmlns="http://www.w3.org/2000/svg" xmlns:xlink="http://www.w3.org/1999/xlink" x="0px" y="0px"
	 viewBox="0 0 226 226" style="enable-background:new 0 0 226 226;" xml:space="preserve">
<style type="text/css">
	.st0{fill:#F0F1F2;}
	.st1{fill:#E8E9EB;}
	.st2{fill:#CCCDCE;}
	.st3{fill:#B6BABF;}
	.st4{fill:#007BFF;stroke:#FFFFFF;stroke-miterlimit:10;}
</style>
<g id="Capa_4">
</g>
<g id="Capa_1">
	<path class="st0" d="M39,113c0,40.9,33.1,74,74,74s74-33.1,74-74s-33.1-74-74-74S39,72.1,39,113z"/>
	<path class="st1" d="M120.2,81.7h53.3c4,0,7.2,3.2,7.2,7.2v53.3c0,4-3.2,7.2-7.2,7.2h-53.3c-4,0-7.2-3.2-7.2-7.2V88.8
		C113,84.9,116.2,81.7,120.2,81.7z"/>
	<path class="st2" d="M143,141c0-1.7,1.3-3,3-3h16c1.7,0,3,1.3,3,3v12c0,1.7-1.3,3-3,3h-16c-1.7,0-3-1.3-3-3V141z"/>
	<path class="st3" d="M174.7,92.6c0-1.7-1.3-3-3-3h-24c-1.7,0-3,1.3-3,3s1.3,3,3,3h24C173.3,95.6,174.7,94.3,174.7,92.6z"/>
	<path class="st3" d="M48.7,76.4H69c1.7,0,3-1.3,3-3s-1.3-3-3-3H52.5C51.1,72.3,49.9,74.3,48.7,76.4z"/>
</g>
<g id="Capa_6">
</g>
<g id="Capa_3">
	<g id="Capa_2">
		<path class="st4" d="M129,154.5c3.7,0,6.5-3.3,6-7c-3.4-24-24-42.5-49-42.5s-45.6,18.5-49,42.5c-0.5,3.7,2.3,7,6,7H129z"/>
		<circle class="st4" cx="87.2" cy="72.7" r="27"/>
		<g id="Capa_5">
			<path class="st0" d="M66.6,108.4l11.9,26.6l5.3-21.3c0,0-4.9-7.6,2.2-7.6s1.8,7.7,1.8,7.7l5.3,21.2l11.5-27.6
				C104.6,107.4,86.3,98.2,66.6,108.4z"/>
		</g>
	</g>
</g>
</svg>
